<?xml version="1.0" encoding="UTF-8"?>
<!DOCTYPE svg PUBLIC "-//W3C//DTD SVG 1.1//EN" "http://www.w3.org/Graphics/SVG/1.1/DTD/svg11.dtd">
<svg xmlns="http://www.w3.org/2000/svg" version="1.1" width="88px" height="92px" style="shape-rendering:geometricPrecision; text-rendering:geometricPrecision; image-rendering:optimizeQuality; fill-rule:evenodd; clip-rule:evenodd" xmlns:xlink="http://www.w3.org/1999/xlink">
<g><path style="opacity:0.783" fill="#fefffe" d="M 4.5,-0.5 C 6.83333,-0.5 9.16667,-0.5 11.5,-0.5C 12.5,6.16667 13.5,6.16667 14.5,-0.5C 15.8333,-0.5 17.1667,-0.5 18.5,-0.5C 20.7368,11.2633 21.7368,11.2633 21.5,-0.5C 23.8333,-0.5 26.1667,-0.5 28.5,-0.5C 28.8333,0.833333 29.1667,0.833333 29.5,-0.5C 33.5,-0.5 37.5,-0.5 41.5,-0.5C 41.5,3.16667 41.5,6.83333 41.5,10.5C 40.5,10.5 39.5,10.5 38.5,10.5C 38.5,7.5 38.5,4.5 38.5,1.5C 37.5,1.5 36.5,1.5 35.5,1.5C 35.5,4.5 35.5,7.5 35.5,10.5C 34.5,10.5 33.5,10.5 32.5,10.5C 32.5,7.5 32.5,4.5 32.5,1.5C 31.5,1.5 30.5,1.5 29.5,1.5C 28.7871,4.23706 28.7871,6.90373 29.5,9.5C 27.2183,10.9004 25.7183,10.2337 25,7.5C 24.5172,8.44802 24.3505,9.44802 24.5,10.5C 21.5342,10.8897 18.8676,10.223 16.5,8.5C 15.1502,9.95012 13.4835,10.6168 11.5,10.5C 11.8146,8.77414 11.9813,7.10747 12,5.5C 10.6439,6.38017 9.14387,6.71351 7.5,6.5C 7.5,7.83333 7.5,9.16667 7.5,10.5C 6.5,10.5 5.5,10.5 4.5,10.5C 4.5,6.83333 4.5,3.16667 4.5,-0.5 Z M 7.5,1.5 C 9.76023,2.23764 9.9269,3.23764 8,4.5C 7.51722,3.55198 7.35055,2.55198 7.5,1.5 Z M 24.5,1.5 C 26.7602,2.23764 26.9269,3.23764 25,4.5C 24.5172,3.55198 24.3505,2.55198 24.5,1.5 Z"/></g>
<g><path style="opacity:0.742" fill="#fefffe" d="M 43.5,-0.5 C 45.5,-0.5 47.5,-0.5 49.5,-0.5C 49.8333,0.833333 50.1667,0.833333 50.5,-0.5C 54.1667,-0.5 57.8333,-0.5 61.5,-0.5C 62.9114,3.29654 63.9114,3.29654 64.5,-0.5C 65.8333,-0.5 67.1667,-0.5 68.5,-0.5C 69.9636,3.01938 70.9636,6.68605 71.5,10.5C 69.8002,10.3739 68.3002,9.70728 67,8.5C 62.8207,11.6265 61.3207,10.9598 62.5,6.5C 60.8333,6.5 59.1667,6.5 57.5,6.5C 57.5,7.83333 57.5,9.16667 57.5,10.5C 52.7339,9.7866 48.0672,9.61994 43.5,10C 42.2035,6.50105 42.2035,3.00105 43.5,-0.5 Z M 57.5,1.5 C 59.4646,1.94835 59.7979,2.94835 58.5,4.5C 57.6143,3.67504 57.281,2.67504 57.5,1.5 Z M 45.5,2.5 C 47.1172,3.038 48.7839,3.37133 50.5,3.5C 50.5,4.5 50.5,5.5 50.5,6.5C 49.0695,6.42082 47.7362,6.75415 46.5,7.5C 45.5481,5.95467 45.2148,4.28801 45.5,2.5 Z"/></g>
<g><path style="opacity:0.708" fill="#fefffe" d="M 70.5,-0.5 C 73.1667,-0.5 75.8333,-0.5 78.5,-0.5C 76.8534,2.92071 76.1868,6.58737 76.5,10.5C 75.1667,10.5 73.8333,10.5 72.5,10.5C 72.8132,6.58737 72.1466,2.92071 70.5,-0.5 Z"/></g>
<g><path style="opacity:0.858" fill="#fefffe" d="M 79.5,-0.5 C 82.1667,-0.5 84.8333,-0.5 87.5,-0.5C 87.5,0.166667 87.5,0.833333 87.5,1.5C 85.8333,1.5 84.1667,1.5 82.5,1.5C 82.5,2.5 82.5,3.5 82.5,4.5C 86.3354,5.00354 86.3354,6.00354 82.5,7.5C 84.0453,8.45189 85.712,8.78522 87.5,8.5C 87.5,9.16667 87.5,9.83333 87.5,10.5C 84.8333,10.5 82.1667,10.5 79.5,10.5C 79.5,6.83333 79.5,3.16667 79.5,-0.5 Z"/></g>
<g><path style="opacity:0.746" fill="#fefffe" d="M 4.5,13.5 C 6.85684,13.3367 9.19018,13.5034 11.5,14C 12.8741,17.4101 13.5408,17.2434 13.5,13.5C 14.5,13.5 15.5,13.5 16.5,13.5C 16.5,17.1667 16.5,20.8333 16.5,24.5C 14.0885,24.8633 12.5885,23.8633 12,21.5C 11.5172,22.448 11.3505,23.448 11.5,24.5C 9.16667,24.5 6.83333,24.5 4.5,24.5C 4.5,20.8333 4.5,17.1667 4.5,13.5 Z"/></g>
<g><path style="opacity:0.784" fill="#fefffe" d="M 19.5,13.5 C 23.5,13.5 27.5,13.5 31.5,13.5C 32.1667,20.1667 32.8333,20.1667 33.5,13.5C 37.5546,13.1758 41.5546,13.5091 45.5,14.5C 43.9547,15.4519 42.288,15.7852 40.5,15.5C 40.5,16.5 40.5,17.5 40.5,18.5C 44.3354,19.0035 44.3354,20.0035 40.5,21.5C 42.1667,22.1667 43.8333,22.8333 45.5,23.5C 41.5546,24.4909 37.5546,24.8242 33.5,24.5C 32.8333,19.1667 32.1667,19.1667 31.5,24.5C 30.5,24.5 29.5,24.5 28.5,24.5C 28.5,21.5 28.5,18.5 28.5,15.5C 27.5,15.5 26.5,15.5 25.5,15.5C 25.5,18.5 25.5,21.5 25.5,24.5C 24.5,24.5 23.5,24.5 22.5,24.5C 22.5,21.5 22.5,18.5 22.5,15.5C 20.8212,15.7148 19.8212,15.0481 19.5,13.5 Z"/></g>
<g><path style="opacity:0.945" fill="#b0b0b0" d="M -0.5,29.5 C 28.8333,29.5 58.1667,29.5 87.5,29.5C 87.5,50.1667 87.5,70.8333 87.5,91.5C 58.1667,91.5 28.8333,91.5 -0.5,91.5C -0.5,70.8333 -0.5,50.1667 -0.5,29.5 Z"/></g>
<g><path style="opacity:1" fill="#f9f9f9" d="M 0.5,30.5 C 29.1667,30.5 57.8333,30.5 86.5,30.5C 86.5,50.5 86.5,70.5 86.5,90.5C 57.8333,90.5 29.1667,90.5 0.5,90.5C 0.5,70.5 0.5,50.5 0.5,30.5 Z"/></g>
<g><path style="opacity:1" fill="#1a1a1a" d="M 13.5,36.5 C 20.3802,35.8764 23.2136,38.8764 22,45.5C 20.3903,47.731 18.557,49.731 16.5,51.5C 18.7427,52.4742 21.076,52.8076 23.5,52.5C 23.5,53.8333 23.5,55.1667 23.5,56.5C 18.8333,56.5 14.1667,56.5 9.5,56.5C 9.34332,55.1266 9.50999,53.7932 10,52.5C 13.3961,49.6072 16.2294,46.2739 18.5,42.5C 18.1131,41.2801 17.2798,40.6135 16,40.5C 14.3058,42.4292 12.1391,43.4292 9.5,43.5C 9.18675,40.1626 10.5201,37.8293 13.5,36.5 Z"/></g>
<g><path style="opacity:1" fill="#181818" d="M 44.5,36.5 C 52.7975,35.6118 55.6309,38.9452 53,46.5C 51.1667,48.3333 49.3333,50.1667 47.5,52C 49.8098,52.4966 52.1432,52.6633 54.5,52.5C 54.5,53.8333 54.5,55.1667 54.5,56.5C 50.1667,56.5 45.8333,56.5 41.5,56.5C 41.3433,55.1266 41.51,53.7932 42,52.5C 45.3961,49.6072 48.2294,46.2739 50.5,42.5C 50.1131,41.2801 49.2798,40.6135 48,40.5C 46.3058,42.4292 44.1391,43.4292 41.5,43.5C 41.1496,40.5466 42.1496,38.2133 44.5,36.5 Z"/></g>
<g><path style="opacity:1" fill="#1a1a1a" d="M 60.5,36.5 C 67.1733,35.3824 70.34,38.0491 70,44.5C 68.2068,47.2953 66.0402,49.7953 63.5,52C 65.8098,52.4966 68.1432,52.6633 70.5,52.5C 70.5,53.8333 70.5,55.1667 70.5,56.5C 66.1667,56.5 61.8333,56.5 57.5,56.5C 58.8663,51.9305 61.3663,47.9305 65,44.5C 65.49,43.2068 65.6567,41.8734 65.5,40.5C 62.9896,41.7834 60.3229,42.7834 57.5,43.5C 57.1496,40.5466 58.1496,38.2133 60.5,36.5 Z"/></g>
<g><path style="opacity:1" fill="#141414" d="M 29.5,36.5 C 32.9705,35.8748 35.8038,36.8748 38,39.5C 38.6667,44.1667 38.6667,48.8333 38,53.5C 35.4406,56.3492 32.2739,57.1825 28.5,56C 27.2986,55.0975 26.4652,53.9308 26,52.5C 25.3333,48.5 25.3333,44.5 26,40.5C 26.6897,38.6498 27.8564,37.3164 29.5,36.5 Z"/></g>
<g><path style="opacity:1" fill="#e7e7e7" d="M 30.5,40.5 C 31.8221,40.33 32.9887,40.6634 34,41.5C 34.6667,44.8333 34.6667,48.1667 34,51.5C 32.6667,52.8333 31.3333,52.8333 30,51.5C 29.2446,47.7446 29.4113,44.0779 30.5,40.5 Z"/></g>
<g><path style="opacity:1" fill="#727272" d="M 10.5,61.5 C 10.5,67.8333 10.5,74.1667 10.5,80.5C 11.8333,80.5 13.1667,80.5 14.5,80.5C 13.0813,81.4511 11.4147,81.7845 9.5,81.5C 9.17596,74.6457 9.50929,67.979 10.5,61.5 Z"/></g>
<g><path style="opacity:1" fill="#1c1c1c" d="M 10.5,61.5 C 14.1817,61.3347 17.8484,61.5014 21.5,62C 25.2788,65.8671 25.2788,69.8671 21.5,74C 22.2364,76.1394 23.2364,78.1394 24.5,80C 22.7412,80.7975 21.0745,80.6309 19.5,79.5C 16.0049,71.2472 14.3382,71.5805 14.5,80.5C 13.1667,80.5 11.8333,80.5 10.5,80.5C 10.5,74.1667 10.5,67.8333 10.5,61.5 Z"/></g>
<g><path style="opacity:1" fill="#1a1a1a" d="M 32.5,61.5 C 34.604,61.2011 36.604,61.5344 38.5,62.5C 40.6127,68.3393 42.6127,74.1726 44.5,80C 43.6667,80.1667 42.8333,80.3333 42,80.5C 37.6667,76.5 33.3333,76.5 29,80.5C 28.1667,80.3333 27.3333,80.1667 26.5,80C 28.6029,73.8582 30.6029,67.6915 32.5,61.5 Z"/></g>
<g><path style="opacity:1" fill="#727272" d="M 63.5,61.5 C 63.5,67.8333 63.5,74.1667 63.5,80.5C 67.8333,80.5 72.1667,80.5 76.5,80.5C 72.03,81.4861 67.3633,81.8195 62.5,81.5C 62.176,74.6457 62.5093,67.979 63.5,61.5 Z"/></g>
<g><path style="opacity:1" fill="#171717" d="M 63.5,61.5 C 67.8333,61.5 72.1667,61.5 76.5,61.5C 76.5,62.8333 76.5,64.1667 76.5,65.5C 73.5,65.5 70.5,65.5 67.5,65.5C 67.5,66.8333 67.5,68.1667 67.5,69.5C 69.5,69.5 71.5,69.5 73.5,69.5C 73.5,70.5 73.5,71.5 73.5,72.5C 71.5,72.5 69.5,72.5 67.5,72.5C 67.5,74.1667 67.5,75.8333 67.5,77.5C 70.5,77.5 73.5,77.5 76.5,77.5C 76.5,78.5 76.5,79.5 76.5,80.5C 72.1667,80.5 67.8333,80.5 63.5,80.5C 63.5,74.1667 63.5,67.8333 63.5,61.5 Z"/></g>
<g><path style="opacity:1" fill="#ebebeb" d="M 14.5,65.5 C 16.9775,65.0508 18.9775,65.7175 20.5,67.5C 18.9775,69.2825 16.9775,69.9492 14.5,69.5C 14.5,68.1667 14.5,66.8333 14.5,65.5 Z"/></g>
<g><path style="opacity:1" fill="#191919" d="M 49.5,61.5 C 55.5725,60.2618 59.2392,62.5952 60.5,68.5C 57.3732,68.5145 54.7065,67.5145 52.5,65.5C 51.5581,65.6082 50.7247,65.9415 50,66.5C 48.9766,70.3169 49.4766,73.8169 51.5,77C 54.061,76.2444 56.7277,75.4111 59.5,74.5C 59.0894,80.0518 56.0894,82.2184 50.5,81C 49.0692,80.5348 47.9025,79.7014 47,78.5C 45.4661,74.2891 45.1327,69.9558 46,65.5C 46.6897,63.6498 47.8564,62.3164 49.5,61.5 Z"/></g>
<g><path style="opacity:1" fill="#dddddd" d="M 34.5,67.5 C 36.5358,69.2057 37.5358,71.539 37.5,74.5C 36.1667,74.5 34.8333,74.5 33.5,74.5C 33.6741,72.139 34.0074,69.8056 34.5,67.5 Z"/></g>
</svg>
